<svg xmlns="http://www.w3.org/2000/svg" viewBox="0 0 720 240" font-family="PingFang TC, Hiragino Sans GB, sans-serif">
  <defs>
    <marker id="a3" markerWidth="9" markerHeight="9" refX="7" refY="4.5" orient="auto">
      <path d="M0,0 L9,4.5 L0,9 z" fill="#5b6470"/>
    </marker>
  </defs>
  <g font-size="12.5" fill="#14161a">
    <rect x="16"  y="90" width="116" height="60" rx="12" fill="#eaf1fd" stroke="#0a5ad6" stroke-width="2"/>
    <text x="74"  y="116" text-anchor="middle">裝置</text>
    <text x="74"  y="136" text-anchor="middle" font-size="10" fill="#5b6470">準備＋加密請求</text>

    <rect x="166" y="90" width="116" height="60" rx="12" fill="#f2f4f7" stroke="#0a5ad6" stroke-width="2"/>
    <text x="224" y="112" text-anchor="middle">匿名轉送</text>
    <text x="224" y="130" text-anchor="middle" font-size="10" fill="#5b6470">OHTTP relay</text>
    <text x="224" y="145" text-anchor="middle" font-size="10" fill="#5b6470">藏來源 IP</text>

    <rect x="316" y="90" width="128" height="60" rx="12" fill="#f2f4f7" stroke="#0a5ad6" stroke-width="2"/>
    <text x="380" y="112" text-anchor="middle">節點選擇</text>
    <text x="380" y="130" text-anchor="middle" font-size="10" fill="#5b6470">驗 attestation</text>
    <text x="380" y="145" text-anchor="middle" font-size="10" fill="#5b6470">封裝金鑰給 REK</text>

    <rect x="478" y="90" width="116" height="60" rx="12" fill="#eaf1fd" stroke="#0a5ad6" stroke-width="2"/>
    <text x="536" y="116" text-anchor="middle">PCC 節點推論</text>
    <text x="536" y="136" text-anchor="middle" font-size="10" fill="#5b6470">proxy → compute</text>

    <rect x="628" y="90" width="80" height="60" rx="12" fill="#f2f4f7" stroke="#0a5ad6" stroke-width="2"/>
    <text x="668" y="116" text-anchor="middle">回應</text>
    <text x="668" y="136" text-anchor="middle" font-size="10" fill="#c62828">用完即棄</text>
  </g>
  <g stroke="#5b6470" stroke-width="2" marker-end="url(#a3)">
    <line x1="132" y1="120" x2="164" y2="120"/>
    <line x1="282" y1="120" x2="314" y2="120"/>
    <line x1="444" y1="120" x2="476" y2="120"/>
    <line x1="594" y1="120" x2="626" y2="120"/>
  </g>
  <text x="16" y="36" font-size="13" fill="#0a5ad6">請求生命週期（端到端）</text>
  <text x="16" y="206" font-size="11" fill="#5b6470">金鑰只封裝給「量測值符合公開透明性日誌」的節點；回應後狀態銷毀。</text>
</svg>
