<svg xmlns="http://www.w3.org/2000/svg" viewBox="0 0 720 220" font-family="PingFang TC, Hiragino Sans GB, sans-serif">
  <defs>
    <marker id="a6" markerWidth="9" markerHeight="9" refX="7" refY="4.5" orient="auto">
      <path d="M0,0 L9,4.5 L0,9 z" fill="#5b6470"/>
    </marker>
  </defs>
  <text x="16" y="30" font-size="13" fill="#0a5ad6">VRE 工作流程（pccvre）</text>
  <g font-size="12" fill="#14161a">
    <rect x="16"  y="80" width="124" height="64" rx="12" fill="#eaf1fd" stroke="#0a5ad6" stroke-width="2"/>
    <text x="78"  y="108" text-anchor="middle">① 驗 log</text>
    <text x="78"  y="128" text-anchor="middle" font-size="10" fill="#5b6470">一致性</text>
    <rect x="170" y="80" width="124" height="64" rx="12" fill="#f2f4f7" stroke="#0a5ad6" stroke-width="2"/>
    <text x="232" y="108" text-anchor="middle">② 下載 binary</text>
    <text x="232" y="128" text-anchor="middle" font-size="10" fill="#5b6470">release download</text>
    <rect x="324" y="80" width="124" height="64" rx="12" fill="#f2f4f7" stroke="#0a5ad6" stroke-width="2"/>
    <text x="386" y="108" text-anchor="middle">③ build VM</text>
    <text x="386" y="128" text-anchor="middle" font-size="10" fill="#5b6470">instance create</text>
    <rect x="478" y="80" width="124" height="64" rx="12" fill="#eaf1fd" stroke="#0a5ad6" stroke-width="2"/>
    <text x="540" y="108" text-anchor="middle">④ 推論</text>
    <text x="540" y="128" text-anchor="middle" font-size="10" fill="#5b6470">demo 模型</text>
    <rect x="632" y="80" width="72" height="64" rx="12" fill="#f2f4f7" stroke="#0a5ad6" stroke-width="2"/>
    <text x="668" y="108" text-anchor="middle" font-size="11">⑤ 驗</text>
    <text x="668" y="126" text-anchor="middle" font-size="9.5" fill="#5b6470">attestation</text>
  </g>
  <g stroke="#5b6470" stroke-width="2" marker-end="url(#a6)">
    <line x1="140" y1="112" x2="168" y2="112"/>
    <line x1="294" y1="112" x2="322" y2="112"/>
    <line x1="448" y1="112" x2="476" y2="112"/>
    <line x1="602" y1="112" x2="630" y2="112"/>
  </g>
  <text x="16" y="186" font-size="11" fill="#5b6470">界限：虛擬 SEP／paravirtualized GPU；無 reproducible builds，源碼僅作分析輔助。</text>
</svg>
