<svg xmlns="http://www.w3.org/2000/svg" viewBox="0 0 720 260" font-family="Inter, system-ui, -apple-system, Helvetica, Arial, sans-serif">
  <!-- person -->
  <circle cx="150" cy="100" r="34" fill="#f2b705"/>
  <rect x="118" y="142" width="64" height="70" rx="14" fill="#f2b705"/>
  <!-- phone in front -->
  <rect x="250" y="80" width="90" height="150" rx="14" fill="#fff" stroke="#e8743b" stroke-width="4"/>
  <rect x="264" y="98" width="62" height="100" rx="6" fill="#fdeee5"/>
  <!-- content the AI must read: a message + photos -->
  <g>
    <rect x="420" y="70" width="150" height="50" rx="10" fill="#fdeee5" stroke="#e8743b" stroke-width="2.5"/>
    <line x1="438" y1="88" x2="552" y2="88" stroke="#e8743b" stroke-width="3"/>
    <line x1="438" y1="104" x2="520" y2="104" stroke="#e8743b" stroke-width="3"/>
    <rect x="420" y="140" width="70" height="60" rx="8" fill="#fdeee5" stroke="#e8743b" stroke-width="2.5"/>
    <circle cx="442" cy="160" r="8" fill="#f2b705"/>
    <path d="M428 196 l20 -22 l16 14 l12 -10 l14 18 z" fill="#e8743b"/>
    <rect x="500" y="140" width="70" height="60" rx="8" fill="#fdeee5" stroke="#e8743b" stroke-width="2.5"/>
    <path d="M508 196 l18 -24 l16 16 l10 -8 l14 16 z" fill="#e8743b"/>
  </g>
  <path d="M345 150 H412" stroke="#e8743b" stroke-width="3" stroke-linecap="round" marker-end="url(#g1a)"/>
  <defs><marker id="g1a" markerWidth="9" markerHeight="9" refX="7" refY="4.5" orient="auto"><path d="M0,0 L9,4.5 L0,9 z" fill="#e8743b"/></marker></defs>
  <text x="495" y="232" text-anchor="middle" font-size="13" fill="#7a7480">To help, it must first see these</text>
</svg>
